<?xml version="1.0" encoding="UTF-8" standalone="no"?>
<svg width="27px" height="23px" viewBox="0 0 27 23" version="1.1" xmlns="http://www.w3.org/2000/svg" xmlns:xlink="http://www.w3.org/1999/xlink">
    <!-- Generator: Sketch 3.8.1 (29687) - http://www.bohemiancoding.com/sketch -->
    <title>icon_change</title>
    <desc>Created with Sketch.</desc>
    <defs></defs>
    <g id="Page-1" stroke="none" stroke-width="1" fill="none" fill-rule="evenodd">
        <g id="Icon-Set" transform="translate(-362.000000, -623.000000)" fill="#FFFFFF">
            <g id="icon_change" transform="translate(362.000000, 623.000000)">
                <path d="M22.528,15.166 C22.23,14.871 21.299,14.948 21,15.244 L21,18 L17,18 L13.465,13.161 L12.207,14.792 L16,19.909 L21,19.909 L21,22.781 C21.299,23.076 22.23,22.945 22.528,22.649 L26.771,19.442 C27.069,19.147 27.069,18.669 26.771,18.373 L22.528,15.166 L22.528,15.166 Z M21,5 L21,7.688 C21.299,7.982 22.23,8.105 22.528,7.811 L26.771,4.604 C27.069,4.308 27.069,3.829 26.771,3.534 L22.528,0.326 C22.23,0.031 21.299,-0.139 21,0.156 L21,3 L16,3 L5,18 L1,18 C0.447,18 0,18.373 0,18.92 C0,19.466 0.447,20 1,20 L6,20 L17,5 L21,5 L21,5 Z M1,5 L5,5 L8.508,9.803 L9.766,8.172 C9.766,8.172 6.254,3.323 6,3 L1,3 C0.447,3 0,3.534 0,4.08 C0,4.627 0.447,5 1,5 L1,5 Z" id="Fill-117"></path>
            </g>
        </g>
    </g>
</svg>