<?xml version="1.0" encoding="UTF-8" standalone="no"?>
<svg width="32px" height="22px" viewBox="0 0 32 22" version="1.1" xmlns="http://www.w3.org/2000/svg" xmlns:xlink="http://www.w3.org/1999/xlink">
    <!-- Generator: Sketch 3.8.1 (29687) - http://www.bohemiancoding.com/sketch -->
    <title>icon_delete</title>
    <desc>Created with Sketch.</desc>
    <defs></defs>
    <g id="Page-1" stroke="none" stroke-width="1" fill="none" fill-rule="evenodd">
        <g id="Icon-Set" transform="translate(-516.000000, -1144.000000)" fill="#FFFFFF">
            <g id="icon_delete" transform="translate(515.000000, 1143.000000)">
                <path d="M23.708,8.28 C23.314,7.89 22.676,7.89 22.281,8.28 L19.981,10.58 L17.742,8.34 C17.352,7.95 16.718,7.95 16.327,8.34 C15.936,8.73 15.936,9.37 16.327,9.76 L18.566,11.99 L16.298,14.26 C15.904,14.65 15.904,15.29 16.298,15.69 C16.692,16.08 17.331,16.08 17.725,15.69 L19.993,13.42 L22.232,15.66 C22.623,16.05 23.257,16.05 23.647,15.66 C24.039,15.27 24.039,14.63 23.647,14.24 L21.408,12.01 L23.708,9.71 C24.103,9.31 24.103,8.68 23.708,8.28 L23.708,8.28 Z M30.998,19 C30.998,20.1 30.102,21 28.996,21 L11.467,21 L3.316,11.98 L11.438,3 L28.996,3 C30.102,3 30.998,3.9 30.998,5 L30.998,19 L30.998,19 Z M28.996,1 L11.051,1 C10.771,0.98 10.485,1.07 10.271,1.28 L1.285,11.22 C1.074,11.43 0.983,11.71 0.998,11.98 C0.983,12.26 1.074,12.54 1.285,12.75 L10.271,22.69 C10.467,22.88 10.723,22.98 10.979,22.98 L10.979,23 L28.996,23 C31.207,23 33,21.21 33,19 L33,5 C33,2.79 31.207,1 28.996,1 L28.996,1 Z" id="Fill-14"></path>
            </g>
        </g>
    </g>
</svg>