<?xml version="1.0" encoding="UTF-8" standalone="no"?>
<svg width="32px" height="32px" viewBox="0 0 32 32" version="1.1" xmlns="http://www.w3.org/2000/svg" xmlns:xlink="http://www.w3.org/1999/xlink">
    <!-- Generator: Sketch 3.8.1 (29687) - http://www.bohemiancoding.com/sketch -->
    <title>icon_edit</title>
    <desc>Created with Sketch.</desc>
    <defs></defs>
    <g id="Page-1" stroke="none" stroke-width="1" fill="none" fill-rule="evenodd">
        <g id="Icon-Set" transform="translate(-516.000000, -99.000000)" fill="#FFFFFF">
            <g id="icon_edit" transform="translate(516.000000, 99.000000)">
                <path d="M11.786,23.02 L6.414,26.273 C5.925,26.501 5.485,26.029 5.713,25.571 L8.965,20.195 L11.786,23.02 L11.786,23.02 Z M21.239,7.222 L24.776,10.712 L13.536,21.959 C12.22,20.641 10.397,18.817 10.024,18.444 L21.239,7.222 L21.239,7.222 Z M24.776,3.683 C25.164,3.294 25.793,3.294 26.182,3.683 L28.289,5.791 C28.677,6.18 28.677,6.809 28.289,7.197 L26.182,9.306 L22.719,5.74 L24.776,3.683 L24.776,3.683 Z M8.11,18.068 L3.81,26.773 C3.449,27.754 4.233,28.632 5.213,28.177 L13.912,23.874 C14.287,23.801 14.651,23.655 14.941,23.365 L30.396,7.899 C31.172,7.124 31.172,5.864 30.396,5.088 L26.884,1.573 C26.107,0.797 24.85,0.797 24.074,1.573 L8.619,17.038 C8.328,17.329 8.184,17.693 8.11,18.068 L8.11,18.068 Z M30,12 L30,28 C30,29.099 28.914,30.012 27.817,30.012 L3.974,30.012 C2.877,30.012 1.987,29.122 1.987,28.023 L1.987,4.165 C1.987,3.066 2.902,2 4,2 L20,2 L20,0 L4,0 C1.806,0 0,1.969 0,4.165 L0,28.023 C0,30.22 1.779,32 3.974,32 L27.817,32 C30.012,32 32,30.196 32,28 L32,12 L30,12 L30,12 Z" id="Fill-214"></path>
            </g>
        </g>
    </g>
</svg>