<?xml version="1.0" encoding="UTF-8" standalone="no"?>
<svg width="28px" height="26px" viewBox="0 0 28 26" version="1.1" xmlns="http://www.w3.org/2000/svg" xmlns:xlink="http://www.w3.org/1999/xlink">
    <!-- Generator: Sketch 3.8.1 (29687) - http://www.bohemiancoding.com/sketch -->
    <title>icon_list</title>
    <desc>Created with Sketch.</desc>
    <defs></defs>
    <g id="Page-1" stroke="none" stroke-width="1" fill="none" fill-rule="evenodd">
        <g id="Icon-Set" transform="translate(-412.000000, -206.000000)" fill="#FFFFFF">
            <g id="icon_list" transform="translate(412.000000, 206.000000)">
                <path d="M27,8 L1,8 C0.447,8 0,8.448 0,9 C0,9.553 0.447,10 1,10 L27,10 C27.553,10 28,9.553 28,9 C28,8.448 27.553,8 27,8 L27,8 Z M27,16 L1,16 C0.447,16 0,16.448 0,17 C0,17.553 0.447,18 1,18 L27,18 C27.553,18 28,17.553 28,17 C28,16.448 27.553,16 27,16 L27,16 Z M1,2 L27,2 C27.553,2 28,1.553 28,1 C28,0.448 27.553,0 27,0 L1,0 C0.447,0 0,0.448 0,1 C0,1.553 0.447,2 1,2 L1,2 Z M16,24 L1,24 C0.447,24 0,24.447 0,25 C0,25.553 0.447,26 1,26 L16,26 C16.553,26 17,25.553 17,25 C17,24.447 16.553,24 16,24 L16,24 Z" id="Fill-196"></path>
            </g>
        </g>
    </g>
</svg>