<?xml version="1.0" encoding="UTF-8" standalone="no"?>
<svg width="32px" height="30px" viewBox="0 0 32 30" version="1.1" xmlns="http://www.w3.org/2000/svg" xmlns:xlink="http://www.w3.org/1999/xlink">
    <!-- Generator: Sketch 3.8.1 (29687) - http://www.bohemiancoding.com/sketch -->
    <title>icon_translate</title>
    <desc>Created with Sketch.</desc>
    <defs></defs>
    <g id="Page-1" stroke="none" stroke-width="1" fill="none" fill-rule="evenodd">
        <g id="Icon-Set" transform="translate(-516.000000, -672.000000)" fill="#FFFFFF">
            <g id="icon_translate" transform="translate(516.000000, 672.000000)">
                <path d="M27,14 L14.727,14 L18.718,10.701 C19.11,10.31 19.11,9.674 18.718,9.282 C18.324,8.89 17.688,8.89 17.294,9.282 L11.314,14.224 C11.104,14.434 11.015,14.711 11.029,14.984 C11.015,15.258 11.104,15.535 11.314,15.745 L17.294,20.687 C17.688,21.079 18.324,21.079 18.718,20.687 C19.11,20.295 19.11,19.659 18.718,19.268 L14.765,16 L27,16 C27.553,16 28,15.553 28,15 C28,14.447 27.553,14 27,14 L27,14 Z M30,26 C30,27.104 29.104,28 28,28 L8,28 L8,2 L28,2 C29.104,2 30,2.896 30,4 L30,26 L30,26 Z M6,28 L4,28 C2.896,28 2,27.104 2,26 L2,4 C2,2.896 2.896,2 4,2 L6,2 L6,28 L6,28 Z M28,0 L4,0 C1.791,0 0,1.791 0,4 L0,26 C0,28.209 1.791,30 4,30 L28,30 C30.209,30 32,28.209 32,26 L32,4 C32,1.791 30.209,0 28,0 L28,0 Z" id="Fill-104"></path>
            </g>
        </g>
    </g>
</svg>